# xmcd CD database file generated by OrangeCD 6.5
#
# Track frame offsets:
#	150
#	14466
#	29174
#	50690
#	63355
#	82103
#	109608
#	125101
#	137453
#	161253
#	185248
#	204080
#	235289
#	248763
#
# Disc length: 3459 seconds
#
# Revision: 4
# Processed by: cddbd v1.5.2PL0 Copyright (c) Steve Scherf et al.
# Submitted via: OrangeCD 6.5
#
DISCID=c40d810e
DTITLE=Sonny Terry and Brownie McGhee - Absolutely the Best
DYEAR=1900
DGENRE=Blues
TTITLE0=Walk On
TTITLE1=Down By The Riverside
TTITLE2=Blues For The Lowland
TTITLE3=Right On That Shore
TTITLE4=I'm A Stranger Here
TTITLE5=Blowin' The Fuses
TTITLE6=Trouble In Mind
TTITLE7=Po' Boy
TTITLE8=Early Morning Blues
TTITLE9=Drinkin's In The Blues
TTITLE10=In The Evening
TTITLE11=Blues For Gamblers
TTITLE12=Dirty Mistreater
TTITLE13=What A Beautiful City
EXTD=
EXTT0=
EXTT1=
EXTT2=
EXTT3=
EXTT4=
EXTT5=
EXTT6=
EXTT7=
EXTT8=
EXTT9=
EXTT10=
EXTT11=
EXTT12=
EXTT13=
PLAYORDER=
